<svg width="265px" height="265px" viewBox="0 0 265 265" version="1.1" xmlns="http://www.w3.org/2000/svg" xmlns:xlink="http://www.w3.org/1999/xlink">
  <!-- Background -->
  <rect width="265" height="265" fill="white"/>

  <!-- Central Circle -->
  <circle cx="132.5" cy="132.5" r="110" fill="#092D1F" opacity="0.1"/>

  <!-- Hydra Body -->
  <path d="M82.5 165 Q95 152.5 107.5 157.5 Q120 162.5 132.5 152.5"
        fill="none"
        stroke="#092D1F"
        stroke-width="16"
        stroke-linecap="round"/>

  <!-- Hydra Necks and Heads -->
  <path d="M132.5 152.5 Q145 127.5 137.5 95 Q135 87.5 142.5 82.5 L147.5 80"
        fill="none"
        stroke="#092D1F"
        stroke-width="12"
        stroke-linecap="round"/>

  <path d="M132.5 152.5 Q157.5 140 165 102.5 Q167.5 95 175 92.5 L180 90"
        fill="none"
        stroke="#092D1F"
        stroke-width="12"
        stroke-linecap="round"/>

  <path d="M132.5 152.5 Q170 152.5 177.5 115 Q180 107.5 187.5 105 L192.5 102.5"
        fill="none"
        stroke="#092D1F"
        stroke-width="12"
        stroke-linecap="round"/>

  <!-- Hydra Head Details -->
  <circle cx="147.5" cy="80" r="8" fill="#092D1F"/>
  <circle cx="180" cy="90" r="8" fill="#092D1F"/>
  <circle cx="192.5" cy="102.5" r="8" fill="#092D1F"/>
</svg>
