<svg width="16" height="16" viewBox="0 0 16 16" version="1.1" xmlns="http://www.w3.org/2000/svg">
  <!-- Background -->
  <rect width="16" height="16" fill="white"/>

  <!-- Background Circle -->
  <circle cx="8" cy="8" r="7.5" fill="#092D1F" opacity="0.1"/>

  <!-- Hydra Body - Made thicker and more prominent -->
  <path d="M3 11 Q5 9.5 6.5 10 Q8 10.5 9 9"
        fill="none"
        stroke="#092D1F"
        stroke-width="2"
        stroke-linecap="round"/>

  <!-- Necks - Increased visibility -->
  <path d="M9 9 Q10 7 9 5 Q9 4.5 9.5 4 L10 3.5"
        fill="none"
        stroke="#092D1F"
        stroke-width="1.5"
        stroke-linecap="round"/>

  <path d="M9 9 Q11 8 11 6 Q11 5.5 11.5 5 L12 4.5"
        fill="none"
        stroke="#092D1F"
        stroke-width="1.5"
        stroke-linecap="round"/>

  <path d="M9 9 Q12 9 12 7 Q12 6.5 12.5 6 L13 5.5"
        fill="none"
        stroke="#092D1F"
        stroke-width="1.5"
        stroke-linecap="round"/>

  <!-- Head Dots - Made larger -->
  <circle cx="10" cy="3.5" r="1" fill="#092D1F"/>
  <circle cx="12" cy="4.5" r="1" fill="#092D1F"/>
  <circle cx="13" cy="5.5" r="1" fill="#092D1F"/>
</svg>
